# xmcd
#
# Track frame offsets:
#	150
#	15486
#	41409
#	55723
#	71511
#	86543
#	106380
#	122474
#	141432
#	160948
#	181262
#	201384
#	220879
#	236447
#	256928
#	279584
#	302769
#
# Disc length: 4237
#
# Revision: 2
# Processed by: cddbd v1.5.1PL0 Copyright (c) Steve Scherf et al.
# Submitted via: CDex 1.50Beta5
# Normalized: r1:DSETVAR1
#
DISCID=e9108b11
DTITLE=Various Artist - World
DYEAR=2001
DGENRE=
TTITLE0=Madazulu - Deep Forest
TTITLE1=Miss - Youssou N'Dour
TTITLE2=Histoire D'un Amour - Cyrius
TTITLE3=Ne Me Jugez Pas - Sawt El Atlas
TTITLE4=Kekana - Wes
TTITLE5=A Vava Inouva 2 - Idir and Karen Matheson
TTITLE6=Yagou - Fania Featuring Horace Andy
TTITLE7=Listening Wind - Geoffrey Oryema
TTITLE8=Borders Of Salt - Dan Ar Braz Et l'Heritage Des Celtes
TTITLE9=Sye Bwa - Kassav
TTITLE10=Miyel - Joelle Ursull
TTITLE11=Mas Que Nada - Bab and Rolando 808
TTITLE12=Longtemps - Armens
TTITLE13=Goulou - Rai Kum
TTITLE14=Por Ella - Tekameli
TTITLE15=Kayen Ou Kayen - Intik
TTITLE16=Royaume - Abed Azrie
EXTD=
EXTT0=
EXTT1=
EXTT2=
EXTT3=
EXTT4=
EXTT5=
EXTT6=
EXTT7=
EXTT8=
EXTT9=
EXTT10=
EXTT11=
EXTT12=
EXTT13=
EXTT14=
EXTT15=
EXTT16=
PLAYORDER=
